<svg width="35" height="36" viewBox="0 0 35 36" fill="none" xmlns="http://www.w3.org/2000/svg">
<path d="M15.4651 32.7244C16.7122 32.7244 17.7232 31.7134 17.7232 30.4663C17.7232 29.2192 16.7122 28.2083 15.4651 28.2083C14.218 28.2083 13.207 29.2192 13.207 30.4663C13.207 31.7134 14.218 32.7244 15.4651 32.7244Z" fill="#0097FF"/>
<path d="M27.1316 32.7244C28.3787 32.7244 29.3897 31.7134 29.3897 30.4663C29.3897 29.2192 28.3787 28.2083 27.1316 28.2083C25.8845 28.2083 24.8735 29.2192 24.8735 30.4663C24.8735 31.7134 25.8845 32.7244 27.1316 32.7244Z" fill="#0097FF"/>
<path d="M11.5484 20.1036L9.09721 9.25L15.0885 2.5L21.5885 7L28.5885 2.5L32.1717 9.25L29.7625 20.0911C29.466 21.4255 28.2825 22.375 26.9154 22.375H14.3928C13.0296 22.375 11.8488 21.4334 11.5484 20.1036Z" fill="#0097FF"/>
<path d="M3 4.875L8.10417 6.5C8.10417 6.5 8.70637 7.54146 9.09223 9.25M9.09721 9.25C9.86822 12.6639 10.9272 17.3528 11.5484 20.1036C11.8488 21.4334 13.0296 22.375 14.3928 22.375H26.9154C28.2825 22.375 29.466 21.4255 29.7625 20.0911L32.1717 9.25L28.5885 2.5L21.5885 7L15.0885 2.5L9.09721 9.25Z" stroke="#0097FF" stroke-width="2.5" stroke-linecap="round" stroke-linejoin="round"/>
</svg>
