<svg width="14" height="17" viewBox="0 0 14 17" fill="none" xmlns="http://www.w3.org/2000/svg">
<path d="M0 7.28763H1.86248V0.227373H8.09865C9.03338 0.227373 9.82162 0.310191 10.4634 0.475827C11.1051 0.627661 11.6702 0.862313 12.1584 1.17978C12.7583 1.56627 13.2118 2.06318 13.5187 2.67051C13.8396 3.26404 14 3.9818 14 4.82379C14 5.47253 13.8814 6.10747 13.6442 6.72861C13.421 7.34974 13.0932 7.86736 12.6607 8.28145C12.0747 8.86118 11.419 9.29597 10.6936 9.58584C9.98206 9.8757 9.08919 10.0206 8.01495 10.0206H5.65022V10.9109H13.2257V13.6439H5.65022V16.7728H1.86248V13.6439H0V10.9109H1.86248V10.0413H0V7.28763ZM10.0658 4.9066C10.0658 4.49251 9.95416 4.14053 9.73094 3.85067C9.50772 3.547 9.24963 3.33996 8.95665 3.22953C8.56602 3.0639 8.18236 2.97418 7.80568 2.96037C7.429 2.94657 6.92676 2.93967 6.29895 2.93967H5.65022V7.28763H6.73842C7.38017 7.28763 7.91031 7.25312 8.32885 7.18411C8.74738 7.10129 9.09616 6.94255 9.37519 6.7079C9.62631 6.50085 9.8007 6.2524 9.89836 5.96254C10.01 5.67267 10.0658 5.3207 10.0658 4.9066Z" fill="#0097FF"/>
</svg>
